<svg height="512pt" viewBox="-61 0 512 512" width="512pt" xmlns="http://www.w3.org/2000/svg"><path d="m375 0h-360c-8.285156 0-15 6.714844-15 15v482c0 8.285156 6.714844 15 15 15h280c52.382812 0 95-42.617188 95-95v-402c0-8.285156-6.714844-15-15-15zm-15 417c0 35.839844-29.160156 65-65 65h-265v-452h330zm0 0"/><path d="m75 273h240c8.285156 0 15-6.714844 15-15v-183c0-8.285156-6.714844-15-15-15h-240c-8.285156 0-15 6.714844-15 15v183c0 8.285156 6.714844 15 15 15zm15-183h210v153h-210zm0 0"/><path d="m75 378h30v30c0 8.285156 6.714844 15 15 15s15-6.714844 15-15v-30h30c8.285156 0 15-6.714844 15-15s-6.714844-15-15-15h-30v-30c0-8.285156-6.714844-15-15-15s-15 6.714844-15 15v30h-30c-8.285156 0-15 6.714844-15 15s6.714844 15 15 15zm0 0"/><path d="m245 348c0 8.285156-6.714844 15-15 15s-15-6.714844-15-15 6.714844-15 15-15 15 6.714844 15 15zm0 0"/><path d="m305 323c0 8.285156-6.714844 15-15 15s-15-6.714844-15-15 6.714844-15 15-15 15 6.714844 15 15zm0 0"/><path d="m275.605469 416.394531c-5.855469-5.859375-15.355469-5.859375-21.210938 0-5.859375 5.859375-5.859375 15.355469 0 21.210938l20 20c2.925781 2.929687 6.765625 4.394531 10.605469 4.394531s7.679688-1.464844 10.605469-4.394531c5.859375-5.859375 5.859375-15.355469 0-21.210938zm0 0"/><path d="m294.394531 376.394531c-5.859375 5.859375-5.859375 15.355469 0 21.210938l20 20c2.925781 2.929687 6.765625 4.394531 10.605469 4.394531s7.679688-1.464844 10.605469-4.394531c5.859375-5.859375 5.859375-15.355469 0-21.210938l-20-20c-5.855469-5.859375-15.355469-5.859375-21.210938 0zm0 0"/></svg>