<?xml version="1.0" encoding="utf-8"?>
<!-- Generator: Adobe Illustrator 25.2.1, SVG Export Plug-In . SVG Version: 6.00 Build 0)  -->
<svg version="1.1" id="Calque_1" xmlns="http://www.w3.org/2000/svg" xmlns:xlink="http://www.w3.org/1999/xlink" x="0px" y="0px"
	 viewBox="0 0 30 30" style="enable-background:new 0 0 30 30;" xml:space="preserve">
<path d="M25.4-0.1H4.5C2-0.1,0,1.9,0,4.4v21C0,28,2,30,4.5,30h21c2.5,0,4.5-2,4.5-4.5v-21C29.9,1.9,27.9-0.1,25.4-0.1z M27.4,25.3
	c0,1.1-0.9,2-2,2H4.5c-1.1,0-2-0.9-2-2V4.4c0-1.1,0.9-2,2-2l0,0h21c1,0,1.9,0.9,1.9,2V25.3z"/>
<path d="M14.9,7.4c-4.1,0-7.5,3.4-7.5,7.5s3.4,7.5,7.5,7.5s7.5-3.4,7.5-7.5S19,7.4,14.9,7.4z M14.9,19.9c-2.7,0-5-2.2-5-5s2.2-5,5-5
	s5,2.2,5,5S17.7,19.9,14.9,19.9z"/>
<circle cx="23" cy="6.8" r="1.9"/>
</svg>
