<?xml version="1.0" encoding="utf-8"?>
<!-- Generator: Adobe Illustrator 25.2.1, SVG Export Plug-In . SVG Version: 6.00 Build 0)  -->
<svg version="1.1"
	 id="Calque_1" xmlns:cc="http://creativecommons.org/ns#" xmlns:dc="http://purl.org/dc/elements/1.1/" xmlns:inkscape="http://www.inkscape.org/namespaces/inkscape" xmlns:rdf="http://www.w3.org/1999/02/22-rdf-syntax-ns#" xmlns:sodipodi="http://sodipodi.sourceforge.net/DTD/sodipodi-0.dtd" xmlns:svg="http://www.w3.org/2000/svg"
	 xmlns="http://www.w3.org/2000/svg" xmlns:xlink="http://www.w3.org/1999/xlink" x="0px" y="0px" viewBox="0 0 84 58"
	 style="enable-background:new 0 0 84 58;" xml:space="preserve">
<g transform="translate(0,-952.36218)">
	<path d="M9,952.4c-4.9,0-9,4.1-9,9v40c0,4.9,4.1,9,9,9h66c4.9,0,9-4.1,9-9v-40c0-4.9-4.1-9-9-9H9z M9.7,958.4h64.7l-30.5,27.2
		c-1.2,1-2.5,1-3.6,0L9.7,958.4z M6,963.1l20.6,18.3L6,1001.2V963.1z M78,963.1v38.1l-20.5-19.8L78,963.1z M53,985.5l19.6,18.9H11.4
		l19.7-18.8l5.2,4.6c3.3,2.9,8.3,2.9,11.6,0L53,985.5z"/>
</g>
</svg>
