<?xml version="1.0" encoding="utf-8"?>
<!-- Generator: Adobe Illustrator 25.2.1, SVG Export Plug-In . SVG Version: 6.00 Build 0)  -->
<svg version="1.1" id="Calque_1" xmlns="http://www.w3.org/2000/svg" xmlns:xlink="http://www.w3.org/1999/xlink" x="0px" y="0px"
	 viewBox="0 0 67 50" style="enable-background:new 0 0 67 50;" xml:space="preserve">
<g id="Calque_2_1_">
</g>
<g id="Calque_1_1_">
	<g>
		<path d="M65.8,19.9c-0.8-1-2-1.7-3.4-1.7l0,0c-2,0-3.9,0.6-5.7,1.5v-7.5c0-2.9-2.4-5.3-5.3-5.3h-10V4.2c0-2.3-1.9-4.2-4.2-4.2
			h-6.3c-2.3,0-4.2,1.9-4.2,4.2v2.7H17c-2.9,0-5.3,2.4-5.3,5.3v19.9c0,2.9,2.4,5.3,5.3,5.3h18.9l3.1,2.7c0.1,0.1,0.3,0.3,0.3,0.5
			l1.7,3.8c0.6,1.2,1.8,2,3.1,2c0.8,0,1.5-0.3,2.1-0.7l0.3-0.3c1.5-1.2,2.2-3.2,1.7-5.1l-0.2-0.7l2.3-1.6l2.7,4.5
			c0.6,1,1.8,1.7,3,1.7c1,0,2-0.5,2.7-1.3c1.2-1.5,1.7-3.4,1.3-5.4l-1.3-5.4l3.4-2.4c2.1-1.5,3.6-3.7,4.3-6.2
			C66.9,22.3,66.6,20.9,65.8,19.9z M51.5,9.8c1.3,0,2.4,1,2.4,2.4v9.8l-1.7,1.4l-4.9-2.6v-11H51.5z M29.8,4.2c0-0.7,0.6-1.3,1.3-1.3
			h6.3c0.7,0,1.3,0.6,1.3,1.3v2.7h-8.9V4.2z M21.1,34.6h-4.3c-1.3,0-2.4-1-2.4-2.4V12.2c0-1.3,1-2.4,2.4-2.4h4.3V34.6z M24.1,9.8
			h20.3v10.3h-0.1c-0.9,0-1.7,0.2-2.5,0.6c-1,0.5-1.8,1.4-2,2.5s0.1,2.3,0.9,3.1l3.6,3.7l-2.2,1.8l-0.6-0.3
			c-0.8-0.4-1.6-0.6-2.4-0.6c-1,0-2.1,0.3-2.9,1L35.9,32c-0.8,0.6-1.3,1.5-1.3,2.5H24.1V9.8z M63.7,22.8c-0.5,1.9-1.6,3.5-3.2,4.6
			l-5,3.4l1.7,7.4c0.2,1,0,2.1-0.7,2.9c-0.1,0.1-0.3,0.2-0.4,0.2c-0.2,0-0.4-0.1-0.5-0.3l-4.3-7.2l-6.6,4.6l0.7,2.7
			c0.2,0.8-0.1,1.5-0.7,2l-0.3,0.3c-0.1,0.1-0.2,0.1-0.3,0.1c-0.2,0-0.4-0.1-0.5-0.3l-1.7-3.9c-0.3-0.6-0.6-1.1-1.1-1.5l-3.2-2.7
			c-0.3-0.2-0.3-0.6,0-0.8l0.3-0.3c0.3-0.3,0.8-0.4,1.1-0.4s0.6,0.1,1,0.3l2.4,1.4l6.1-5.1l-5.9-6c-0.3-0.3-0.2-0.8,0.1-1
			c0.4-0.2,0.9-0.3,1.4-0.3c0.6,0,1.1,0.1,1.6,0.4l6.7,3.6l4.6-3.8c1.5-1.2,3.4-1.9,5.2-1.9l0,0C63.3,21.2,63.9,22,63.7,22.8z"/>
		<path d="M33.9,41.4c-15,8.7-24.8,6-28.6,1c-3.4-4.4-2.5-10.8,2.2-15.6c0.6-0.6,0.6-1.5,0-2c-0.6-0.6-1.5-0.6-2,0
			c-5.9,5.7-6.8,13.8-2.4,19.4c2.7,3.5,7.1,5.5,12.3,5.7c0.3,0,0.6,0,0.8,0c5.7,0,12.3-2.1,19.2-6.1c0.7-0.4,0.9-1.3,0.6-2
			C35.5,41.3,34.6,41.1,33.9,41.4z"/>
	</g>
</g>
</svg>
